<svg width="1491" height="805" viewBox="0 0 1491 805" fill="none" xmlns="http://www.w3.org/2000/svg">
<path d="M332.59 254.595C372.003 214.485 409.113 171.648 448.541 130.97C490.424 87.7617 522.304 43.3893 578.367 17.0829C657.267 -20.3034 752.348 2.43069 769.757 97.6086C776.222 132.947 773.561 165.716 773.888 201.471C774.474 266.94 771.39 333.286 773.167 398.67C783.851 378.642 796.542 346.209 805.919 324.432L871.566 171.318C886.669 136.792 898.438 103.356 922.293 73.5321C958.407 28.3751 1011.02 4.21398 1068.91 6.9009C1092.09 7.97739 1117.7 5.2732 1140.66 7.06703C1083.56 38.9047 1085.12 87.466 1087.89 144.825L1091.27 213.794L1096.24 314.856C1097.21 334.759 1097.82 356.981 1099.44 376.639C1100.13 385 1101 394 1102 400.5C1107 391.5 1108.5 388.5 1109 387.5C1112.5 380.5 1113.19 379 1114.51 376.242C1144.18 314.157 1170.8 249.846 1200.08 187.491C1217.17 151.099 1232.32 108.435 1256.75 76.678C1277.52 49.6831 1303.86 28.7592 1336.13 17.2299C1370.03 5.11572 1394.49 6.95275 1429.46 6.91338L1491 6.80008C1481.25 14.6467 1469.65 22.3569 1461.36 31.6506C1425.47 71.8919 1403.83 130.096 1381.48 178.273L1275.46 409.336L1244.48 477.387C1232.77 502.939 1222.01 527.394 1205.52 550.489C1168.28 602.624 1113.33 637.723 1047.44 635.188C1023.36 634.256 997.96 635.687 973.682 634.986L968.956 401.149C968.062 356.898 966.438 309.652 966.583 265.553C955.467 289.833 945.437 314.953 934.888 339.494L859.115 517.561L834.75 575.467C822.232 605.006 821.127 616.539 789.913 628.168C787.598 629.023 785.273 629.868 782.948 630.684L771.89 632.681C767.105 633.776 762.964 634.026 758.189 634.439C695.513 639.797 646.507 600.473 629 541.626C619.778 510.637 620.378 484.063 620.241 451.965L619.838 374.006C619.209 345.026 618.795 316.043 618.594 287.058C618.354 251.83 615.714 231.599 632.697 199.293C635.852 194.605 639.814 189.699 643.307 185.182C673.576 157.108 704.816 154.907 739.983 175.135C740.742 175.572 766.243 189 772.5 191.5C769.243 185 755.5 171 752 167C739.252 152.431 724.314 139.282 705.381 135.188C642.418 121.674 599.799 172.812 562.016 214.688C542.435 236.39 523.219 258.366 502.358 278.858C477.912 304.548 459.417 319.552 428.517 337.224C448.282 349.097 462.069 357.64 478.594 374.263C567.63 463.825 551.488 628.187 683.43 677.719C714.947 689.617 749.351 691.567 782.016 683.299C814.95 675.098 828.928 666.09 856.972 648.334C824.97 714.412 774.868 769.168 703.946 793.195C655.305 809.904 601.21 809.76 554.361 787.059C465.59 744.037 431.246 645.693 401.075 558.959C382.135 504.517 358.405 404.652 295.226 386.419C265.591 472.069 261.822 575.371 169.129 621.215C135.952 637.627 106.332 635.216 70.6621 635.13C47.1635 635.063 23.4227 635.572 0 634.736C5.13417 632.163 10.3318 629.608 15.4092 626.833C73.1984 595.278 82.5128 524.11 99.3535 466.988C103.724 452.161 107.43 437.2 111.446 422.467L171.054 205.831C181.53 168.532 191.491 121.717 207.587 87.6091C231.406 37.1397 286.629 3.73866 342.264 6.7876C361.857 7.44444 382.235 6.45724 401.964 7.13329C385.879 65.9361 369.343 124.615 352.359 183.164C346.784 203.098 336.062 236.016 332.59 254.595Z" fill="#F9297B"/>
</svg>
